<svg width="16" height="7" viewBox="0 0 16 7" fill="none" xmlns="http://www.w3.org/2000/svg">
<path d="M1.98264 5.53801C2.08414 5.53801 2.14571 5.53801 2.20729 5.53801C2.91594 5.53801 3.62496 5.53652 4.33361 5.5395C4.44407 5.53988 4.55639 5.55144 4.66498 5.57309C5.00718 5.64138 5.13032 5.84849 5.17137 6.13583C5.23668 6.59147 4.93553 6.86276 4.54109 6.87582C4.40451 6.8803 4.26756 6.87844 4.13098 6.87993C3.38613 6.88888 2.64128 6.90344 1.89644 6.9053C1.54342 6.90605 1.18965 6.89112 0.83738 6.86799C0.622434 6.85381 0.408608 6.81761 0.233218 6.66759C0.0425285 6.50415 -0.0294932 6.30263 0.0108091 6.05672C0.0488724 5.82423 0.155599 5.62384 0.296657 5.43987C0.948958 4.58941 1.60126 3.73896 2.25505 2.88962C2.45171 2.63438 2.65584 2.38435 2.85324 2.12985C2.91594 2.04887 2.97452 1.9623 2.96893 1.83281C2.88795 1.83281 2.81443 1.83281 2.74129 1.83281C2.19423 1.83281 1.64716 1.84139 1.10009 1.82833C0.905297 1.82348 0.707144 1.78318 0.51944 1.72944C0.249638 1.65219 0.108207 1.44583 0.105968 1.17939C0.103355 0.900258 0.246279 0.703971 0.516081 0.603961C0.728415 0.525223 0.949331 0.502832 1.17174 0.502459C2.16661 0.500967 3.16111 0.502832 4.15598 0.50731C4.26606 0.507683 4.37839 0.524103 4.48586 0.549105C4.97994 0.663668 5.19787 1.19693 4.90344 1.64809C4.72767 1.91752 4.53288 2.17463 4.33846 2.43175C3.75557 3.20271 3.16894 3.9707 2.58381 4.73943C2.40731 4.97117 2.23005 5.20216 2.05354 5.43352C2.036 5.45629 2.0207 5.48166 1.98264 5.53801Z" fill="white"/>
<path d="M8.21935 2.69991C8.27084 2.66035 8.33316 2.62117 8.38466 2.57079C8.58692 2.37189 8.81418 2.32674 9.08062 2.42824C9.36647 2.53721 9.49596 2.74879 9.50566 3.04098C9.5135 3.27683 9.50716 3.51342 9.50716 3.74963C9.50716 4.53292 9.50492 5.3162 9.5079 6.09948C9.50977 6.57117 9.24482 6.76634 8.86941 6.82679C8.7026 6.85366 8.55483 6.77865 8.42758 6.6708C8.38056 6.63088 8.33727 6.58609 8.29995 6.55064C8.1992 6.52079 8.12344 6.53982 8.04358 6.59132C7.75289 6.77865 7.43606 6.90329 7.08752 6.90814C6.62367 6.91448 6.21207 6.75439 5.86278 6.45362C5.39147 6.04798 5.14331 5.5248 5.06084 4.90944C4.99852 4.44671 5.07241 4.01048 5.25116 3.5888C5.52693 2.93836 5.99824 2.49728 6.6957 2.34092C7.1741 2.23382 7.6275 2.33457 8.04023 2.60363C8.07642 2.62714 8.11299 2.65028 8.15068 2.67192C8.16636 2.68125 8.18427 2.6861 8.21935 2.69991ZM8.16598 4.58703C8.17867 4.38066 8.12792 4.16833 8.01784 3.96756C7.86484 3.68806 7.62563 3.54141 7.31478 3.52349C6.98192 3.50446 6.72256 3.65671 6.55949 3.93958C6.32066 4.35342 6.31021 4.78742 6.52814 5.21358C6.83601 5.81625 7.68236 5.79759 7.99656 5.28C8.12382 5.07103 8.17046 4.8475 8.16598 4.58703Z" fill="white"/>
<path d="M11.5176 4.69949C11.5318 3.95054 11.7161 3.36616 12.196 2.90678C12.5815 2.53772 13.0521 2.35076 13.5853 2.32165C13.9865 2.30001 14.379 2.34143 14.7444 2.51906C15.3545 2.8161 15.7512 3.3001 15.9131 3.95576C16.0934 4.68606 16.0027 5.38463 15.5542 6.00633C15.1922 6.5075 14.6947 6.78961 14.079 6.88067C13.6155 6.94896 13.1767 6.87805 12.7602 6.68624C12.1397 6.40002 11.7747 5.89214 11.603 5.2432C11.5482 5.03534 11.5355 4.81704 11.5176 4.69949ZM12.8431 4.61739C12.8763 4.77338 12.8957 4.93347 12.945 5.08423C13.0666 5.45665 13.3476 5.65033 13.7245 5.666C14.0372 5.67906 14.31 5.5477 14.472 5.2641C14.7216 4.82674 14.7283 4.37409 14.4727 3.94084C14.1182 3.34041 13.3498 3.43482 13.0629 3.89083C12.9222 4.11361 12.8561 4.35132 12.8431 4.61739Z" fill="white"/>
<path d="M11.1828 3.62121C11.1828 4.42353 11.1858 5.22547 11.1798 6.02778C11.1787 6.161 11.1525 6.29908 11.1122 6.4267C11.0372 6.66478 10.8447 6.79427 10.5958 6.80622C10.3976 6.81592 10.2129 6.79278 10.0647 6.64015C9.93638 6.50805 9.87891 6.3517 9.87742 6.16996C9.86921 5.17621 9.85951 4.18246 9.85204 3.18871C9.84943 2.81554 9.84794 2.44237 9.85279 2.06957C9.85689 1.74715 9.8651 1.42511 9.88003 1.10306C9.89943 0.686606 10.2692 0.42688 10.6719 0.518307C11.0122 0.595553 11.1839 0.864608 11.1835 1.19636C11.1824 2.00427 11.1828 2.81293 11.1828 3.62121Z" fill="white"/>
</svg>
