<svg width="16" height="15" viewBox="0 0 16 15" fill="none" xmlns="http://www.w3.org/2000/svg">
<path d="M2.66406 14.5625H13.3359C14.9688 14.5625 15.7812 13.75 15.7812 12.1406V2.60156C15.7812 0.992188 14.9688 0.179688 13.3359 0.179688H2.66406C1.03125 0.179688 0.210938 0.984375 0.210938 2.60156V12.1406C0.210938 13.7578 1.03125 14.5625 2.66406 14.5625ZM2.54688 13.3047C1.85156 13.3047 1.46875 12.9375 1.46875 12.2109V4.84375C1.46875 4.125 1.85156 3.75 2.54688 3.75H13.4375C14.1328 3.75 14.5234 4.125 14.5234 4.84375V12.2109C14.5234 12.9375 14.1328 13.3047 13.4375 13.3047H2.54688ZM6.47656 6.55469H6.9375C7.21094 6.55469 7.29688 6.47656 7.29688 6.20312V5.74219C7.29688 5.46875 7.21094 5.38281 6.9375 5.38281H6.47656C6.20312 5.38281 6.10938 5.46875 6.10938 5.74219V6.20312C6.10938 6.47656 6.20312 6.55469 6.47656 6.55469ZM9.07031 6.55469H9.53125C9.80469 6.55469 9.89844 6.47656 9.89844 6.20312V5.74219C9.89844 5.46875 9.80469 5.38281 9.53125 5.38281H9.07031C8.79688 5.38281 8.70312 5.46875 8.70312 5.74219V6.20312C8.70312 6.47656 8.79688 6.55469 9.07031 6.55469ZM11.6641 6.55469H12.125C12.3984 6.55469 12.4922 6.47656 12.4922 6.20312V5.74219C12.4922 5.46875 12.3984 5.38281 12.125 5.38281H11.6641C11.3906 5.38281 11.3047 5.46875 11.3047 5.74219V6.20312C11.3047 6.47656 11.3906 6.55469 11.6641 6.55469ZM3.88281 9.10938H4.33594C4.61719 9.10938 4.70312 9.03125 4.70312 8.75781V8.29688C4.70312 8.02344 4.61719 7.94531 4.33594 7.94531H3.88281C3.60156 7.94531 3.51562 8.02344 3.51562 8.29688V8.75781C3.51562 9.03125 3.60156 9.10938 3.88281 9.10938ZM6.47656 9.10938H6.9375C7.21094 9.10938 7.29688 9.03125 7.29688 8.75781V8.29688C7.29688 8.02344 7.21094 7.94531 6.9375 7.94531H6.47656C6.20312 7.94531 6.10938 8.02344 6.10938 8.29688V8.75781C6.10938 9.03125 6.20312 9.10938 6.47656 9.10938ZM9.07031 9.10938H9.53125C9.80469 9.10938 9.89844 9.03125 9.89844 8.75781V8.29688C9.89844 8.02344 9.80469 7.94531 9.53125 7.94531H9.07031C8.79688 7.94531 8.70312 8.02344 8.70312 8.29688V8.75781C8.70312 9.03125 8.79688 9.10938 9.07031 9.10938ZM11.6641 9.10938H12.125C12.3984 9.10938 12.4922 9.03125 12.4922 8.75781V8.29688C12.4922 8.02344 12.3984 7.94531 12.125 7.94531H11.6641C11.3906 7.94531 11.3047 8.02344 11.3047 8.29688V8.75781C11.3047 9.03125 11.3906 9.10938 11.6641 9.10938ZM3.88281 11.6719H4.33594C4.61719 11.6719 4.70312 11.5859 4.70312 11.3125V10.8516C4.70312 10.5781 4.61719 10.5 4.33594 10.5H3.88281C3.60156 10.5 3.51562 10.5781 3.51562 10.8516V11.3125C3.51562 11.5859 3.60156 11.6719 3.88281 11.6719ZM6.47656 11.6719H6.9375C7.21094 11.6719 7.29688 11.5859 7.29688 11.3125V10.8516C7.29688 10.5781 7.21094 10.5 6.9375 10.5H6.47656C6.20312 10.5 6.10938 10.5781 6.10938 10.8516V11.3125C6.10938 11.5859 6.20312 11.6719 6.47656 11.6719ZM9.07031 11.6719H9.53125C9.80469 11.6719 9.89844 11.5859 9.89844 11.3125V10.8516C9.89844 10.5781 9.80469 10.5 9.53125 10.5H9.07031C8.79688 10.5 8.70312 10.5781 8.70312 10.8516V11.3125C8.70312 11.5859 8.79688 11.6719 9.07031 11.6719Z" fill="#212529"/>
</svg>
