<svg width="128" height="22" viewBox="0 0 128 22" fill="none" xmlns="http://www.w3.org/2000/svg">
<path d="M5.63672 17H9.99609L15.6328 0.0898438H11.6484L7.92188 13.0625H7.71094L3.97266 0.0898438H0L5.63672 17Z" fill="white"/>
<path d="M17.3672 17H20.7891V9.53516C20.7891 7.78906 21.75 6.65234 23.332 6.65234C24.9492 6.65234 25.6992 7.61328 25.6992 9.42969V17H29.1211V8.65625C29.1211 5.57422 27.5742 3.81641 24.7031 3.81641C22.8633 3.81641 21.5859 4.69531 21 6.08984H20.7891V4.09766H17.3672V17Z" fill="white"/>
<path d="M38.1211 17.2695C41.4844 17.2695 43.5 15.4648 43.8516 12.6523L43.8633 12.582H40.6992L40.6758 12.6289C40.3711 13.918 39.5391 14.5859 38.1328 14.5859C36.3047 14.5859 35.2852 13.1445 35.2852 10.5312V10.5078C35.2852 7.92969 36.293 6.5 38.1328 6.5C39.5977 6.5 40.4531 7.32031 40.6758 8.57422L40.6875 8.59766H43.875V8.5625C43.5703 5.67969 41.543 3.81641 38.1211 3.81641C34.0781 3.81641 31.8047 6.26562 31.8047 10.5078V10.5312C31.8047 14.8203 34.0898 17.2695 38.1211 17.2695Z" fill="white"/>
<path d="M52.2773 17.2695C56.25 17.2695 58.6406 14.7617 58.6406 10.5547V10.5312C58.6406 6.35938 56.2148 3.81641 52.2773 3.81641C48.3398 3.81641 45.9141 6.37109 45.9141 10.5312V10.5547C45.9141 14.75 48.3047 17.2695 52.2773 17.2695ZM52.2773 14.5859C50.4492 14.5859 49.418 13.0977 49.418 10.5547V10.5312C49.418 8.01172 50.4609 6.5 52.2773 6.5C54.082 6.5 55.1367 8.01172 55.1367 10.5312V10.5547C55.1367 13.0977 54.0938 14.5859 52.2773 14.5859Z" fill="white"/>
<path d="M61.4297 17H64.8516V9.53516C64.8516 7.78906 65.8125 6.65234 67.3945 6.65234C69.0117 6.65234 69.7617 7.61328 69.7617 9.42969V17H73.1836V8.65625C73.1836 5.57422 71.6367 3.81641 68.7656 3.81641C66.9258 3.81641 65.6484 4.69531 65.0625 6.08984H64.8516V4.09766H61.4297V17Z" fill="white"/>
<path d="M82.1836 17.2695C85.5469 17.2695 87.5625 15.4648 87.9141 12.6523L87.9258 12.582H84.7617L84.7383 12.6289C84.4336 13.918 83.6016 14.5859 82.1953 14.5859C80.3672 14.5859 79.3477 13.1445 79.3477 10.5312V10.5078C79.3477 7.92969 80.3555 6.5 82.1953 6.5C83.6602 6.5 84.5156 7.32031 84.7383 8.57422L84.75 8.59766H87.9375V8.5625C87.6328 5.67969 85.6055 3.81641 82.1836 3.81641C78.1406 3.81641 75.8672 6.26562 75.8672 10.5078V10.5312C75.8672 14.8203 78.1523 17.2695 82.1836 17.2695Z" fill="white"/>
<path d="M96.2812 17.2695C100.055 17.2695 101.719 15.0898 102.117 13.4727L102.141 13.3555H98.9531L98.918 13.4258C98.6836 13.918 97.8516 14.7148 96.3516 14.7148C94.5352 14.7148 93.3984 13.4844 93.3633 11.3633H102.246V10.2969C102.246 6.39453 99.9023 3.81641 96.1406 3.81641C92.3789 3.81641 89.9766 6.45312 89.9766 10.5547V10.5664C89.9766 14.7031 92.3555 17.2695 96.2812 17.2695ZM96.1992 6.38281C97.6875 6.38281 98.7539 7.34375 98.9648 9.21875H93.3984C93.6094 7.39062 94.7109 6.38281 96.1992 6.38281Z" fill="white"/>
<path d="M105.047 21.2773H108.469V14.9375H108.68C109.336 16.3438 110.777 17.1992 112.547 17.1992C115.816 17.1992 117.785 14.7031 117.785 10.5547V10.5312C117.785 6.41797 115.77 3.88672 112.547 3.88672C110.719 3.88672 109.348 4.70703 108.68 6.08984H108.469V4.09766H105.047V21.2773ZM111.375 14.3633C109.582 14.3633 108.434 12.9219 108.434 10.5547V10.5312C108.434 8.16406 109.57 6.72266 111.375 6.72266C113.191 6.72266 114.305 8.16406 114.305 10.5312V10.5547C114.305 12.9219 113.18 14.3633 111.375 14.3633Z" fill="white"/>
<path d="M125.941 17.0469C126.598 17.0469 127.23 16.9766 127.652 16.8945V14.3516C127.324 14.3867 127.09 14.4102 126.645 14.4102C125.484 14.4102 124.992 13.8945 124.992 12.7344V6.67578H127.652V4.09766H124.992V1.01562H121.535V4.09766H119.543V6.67578H121.535V13.5195C121.535 16.0273 122.801 17.0469 125.941 17.0469Z" fill="white"/>
</svg>
