<svg width="18" height="15" viewBox="0 0 18 15" fill="none" xmlns="http://www.w3.org/2000/svg">
<path d="M0.98291 12.7871C0.98291 13.7964 1.53516 14.3867 2.4873 14.3867H9.99023C10.9424 14.3867 11.501 13.7964 11.501 12.7871V2.05957C11.501 1.05029 10.9424 0.459961 9.99023 0.459961H2.4873C1.53516 0.459961 0.98291 1.05029 0.98291 2.05957V12.7871ZM3.79492 4.11621V2.92285C3.79492 2.76416 3.89648 2.65625 4.04883 2.65625H5.34375C5.49609 2.65625 5.604 2.76416 5.604 2.92285V4.11621C5.604 4.2749 5.49609 4.37646 5.34375 4.37646H4.04883C3.89648 4.37646 3.79492 4.2749 3.79492 4.11621ZM6.90527 4.11621V2.92285C6.90527 2.76416 7.00684 2.65625 7.15918 2.65625H8.46045C8.61279 2.65625 8.71436 2.76416 8.71436 2.92285V4.11621C8.71436 4.2749 8.61279 4.37646 8.46045 4.37646H7.15918C7.00684 4.37646 6.90527 4.2749 6.90527 4.11621ZM12.0723 14.3867H15.5063C16.4585 14.3867 17.0171 13.7964 17.0171 12.7871V5.30322C17.0171 4.30029 16.4585 3.70361 15.5063 3.70361H12.5293V12.7871C12.5293 13.3774 12.377 13.917 12.0723 14.3867ZM3.79492 6.7124V5.51904C3.79492 5.36035 3.89648 5.25244 4.04883 5.25244H5.34375C5.49609 5.25244 5.604 5.36035 5.604 5.51904V6.7124C5.604 6.87109 5.49609 6.979 5.34375 6.979H4.04883C3.89648 6.979 3.79492 6.87109 3.79492 6.7124ZM6.90527 6.7124V5.51904C6.90527 5.36035 7.00684 5.25244 7.15918 5.25244H8.46045C8.61279 5.25244 8.71436 5.36035 8.71436 5.51904V6.7124C8.71436 6.87109 8.61279 6.979 8.46045 6.979H7.15918C7.00684 6.979 6.90527 6.87109 6.90527 6.7124ZM14.0527 7.07422V6.08398C14.0527 5.95068 14.1289 5.86182 14.2622 5.86182H15.2778C15.4048 5.86182 15.4873 5.95068 15.4873 6.08398V7.07422C15.4873 7.20752 15.4048 7.29004 15.2778 7.29004H14.2622C14.1289 7.29004 14.0527 7.20752 14.0527 7.07422ZM3.79492 9.30859V8.11523C3.79492 7.95654 3.89648 7.85498 4.04883 7.85498H5.34375C5.49609 7.85498 5.604 7.95654 5.604 8.11523V9.30859C5.604 9.46729 5.49609 9.5752 5.34375 9.5752H4.04883C3.89648 9.5752 3.79492 9.46729 3.79492 9.30859ZM6.90527 9.30859V8.11523C6.90527 7.95654 7.00684 7.85498 7.15918 7.85498H8.46045C8.61279 7.85498 8.71436 7.95654 8.71436 8.11523V9.30859C8.71436 9.46729 8.61279 9.5752 8.46045 9.5752H7.15918C7.00684 9.5752 6.90527 9.46729 6.90527 9.30859ZM14.0527 9.54346V8.55322C14.0527 8.41992 14.1289 8.33105 14.2622 8.33105H15.2778C15.4048 8.33105 15.4873 8.41992 15.4873 8.55322V9.54346C15.4873 9.67676 15.4048 9.75928 15.2778 9.75928H14.2622C14.1289 9.75928 14.0527 9.67676 14.0527 9.54346ZM3.90283 13.0791V11.1938C3.90283 10.8892 4.10596 10.6924 4.41064 10.6924H8.02881C8.40967 10.6924 8.60645 10.8892 8.60645 11.1938V13.0791H3.90283ZM14.0527 12.0127V11.0225C14.0527 10.8892 14.1289 10.8003 14.2622 10.8003H15.2778C15.4048 10.8003 15.4873 10.8892 15.4873 11.0225V12.0127C15.4873 12.146 15.4048 12.2285 15.2778 12.2285H14.2622C14.1289 12.2285 14.0527 12.146 14.0527 12.0127Z" fill="#212529"/>
<path d="M12.0723 14.3867L11.2333 13.8425L10.2317 15.3867H12.0723V14.3867ZM12.5293 3.70361V2.70361H11.5293V3.70361H12.5293ZM3.90283 13.0791H2.90283V14.0791H3.90283V13.0791ZM8.60645 13.0791V14.0791H9.60645V13.0791H8.60645ZM-0.0170898 12.7871C-0.0170898 13.468 0.170915 14.1408 0.649108 14.65C1.13548 15.1679 1.80006 15.3867 2.4873 15.3867V13.3867C2.2224 13.3867 2.13478 13.3104 2.107 13.2808C2.07103 13.2425 1.98291 13.1155 1.98291 12.7871H-0.0170898ZM2.4873 15.3867H9.99023V13.3867H2.4873V15.3867ZM9.99023 15.3867C10.6772 15.3867 11.342 15.1681 11.8295 14.6522C12.3098 14.1439 12.501 13.4709 12.501 12.7871H10.501C10.501 13.1126 10.4129 13.2394 10.3758 13.2786C10.346 13.3101 10.2554 13.3867 9.99023 13.3867V15.3867ZM12.501 12.7871V2.05957H10.501V12.7871H12.501ZM12.501 2.05957C12.501 1.37577 12.3098 0.702739 11.8295 0.194478C11.342 -0.321459 10.6772 -0.540039 9.99023 -0.540039V1.45996C10.2554 1.45996 10.346 1.53655 10.3758 1.5681C10.4129 1.60732 10.501 1.73409 10.501 2.05957H12.501ZM9.99023 -0.540039H2.4873V1.45996H9.99023V-0.540039ZM2.4873 -0.540039C1.80006 -0.540039 1.13548 -0.321188 0.649108 0.196713C0.170915 0.7059 -0.0170898 1.3787 -0.0170898 2.05957H1.98291C1.98291 1.73117 2.07103 1.60416 2.107 1.56586C2.13478 1.53628 2.2224 1.45996 2.4873 1.45996V-0.540039ZM-0.0170898 2.05957V12.7871H1.98291V2.05957H-0.0170898ZM4.79492 4.11621V2.92285H2.79492V4.11621H4.79492ZM4.79492 2.92285C4.79492 3.05818 4.74863 3.25139 4.59005 3.41847C4.42695 3.59031 4.21849 3.65625 4.04883 3.65625V1.65625C3.72683 1.65625 3.39141 1.77615 3.13944 2.04162C2.89199 2.30232 2.79492 2.62883 2.79492 2.92285H4.79492ZM4.04883 3.65625H5.34375V1.65625H4.04883V3.65625ZM5.34375 3.65625C5.17683 3.65625 4.97675 3.59269 4.81788 3.43108C4.65974 3.27021 4.604 3.07528 4.604 2.92285H6.604C6.604 2.61173 6.49432 2.2835 6.24413 2.029C5.99322 1.77377 5.66301 1.65625 5.34375 1.65625V3.65625ZM4.604 2.92285V4.11621H6.604V2.92285H4.604ZM4.604 4.11621C4.604 3.96149 4.66172 3.75807 4.83007 3.59262C4.99574 3.42981 5.19447 3.37646 5.34375 3.37646V5.37646C5.64537 5.37646 5.97423 5.27234 6.23194 5.01908C6.49234 4.76317 6.604 4.42962 6.604 4.11621H4.604ZM5.34375 3.37646H4.04883V5.37646H5.34375V3.37646ZM4.04883 3.37646C4.2004 3.37646 4.40787 3.43177 4.57808 3.60503C4.74704 3.777 4.79492 3.97902 4.79492 4.11621H2.79492C2.79492 4.4121 2.89359 4.74424 3.15141 5.00667C3.41049 5.27038 3.74491 5.37646 4.04883 5.37646V3.37646ZM7.90527 4.11621V2.92285H5.90527V4.11621H7.90527ZM7.90527 2.92285C7.90527 3.05818 7.85898 3.25139 7.7004 3.41847C7.5373 3.59031 7.32884 3.65625 7.15918 3.65625V1.65625C6.83718 1.65625 6.50176 1.77615 6.24979 2.04162C6.00234 2.30232 5.90527 2.62883 5.90527 2.92285H7.90527ZM7.15918 3.65625H8.46045V1.65625H7.15918V3.65625ZM8.46045 3.65625C8.29079 3.65625 8.08233 3.59031 7.91922 3.41847C7.76064 3.25139 7.71436 3.05818 7.71436 2.92285H9.71436C9.71436 2.62883 9.61729 2.30232 9.36984 2.04162C9.11787 1.77615 8.78245 1.65625 8.46045 1.65625V3.65625ZM7.71436 2.92285V4.11621H9.71436V2.92285H7.71436ZM7.71436 4.11621C7.71436 3.97902 7.76224 3.777 7.93119 3.60503C8.10141 3.43177 8.30887 3.37646 8.46045 3.37646V5.37646C8.76437 5.37646 9.09879 5.27038 9.35787 5.00667C9.61569 4.74424 9.71436 4.4121 9.71436 4.11621H7.71436ZM8.46045 3.37646H7.15918V5.37646H8.46045V3.37646ZM7.15918 3.37646C7.31075 3.37646 7.51822 3.43177 7.68843 3.60503C7.85739 3.777 7.90527 3.97902 7.90527 4.11621H5.90527C5.90527 4.4121 6.00394 4.74424 6.26176 5.00667C6.52084 5.27038 6.85526 5.37646 7.15918 5.37646V3.37646ZM12.0723 15.3867H15.5063V13.3867H12.0723V15.3867ZM15.5063 15.3867C16.1933 15.3867 16.8581 15.1681 17.3456 14.6522C17.8259 14.1439 18.0171 13.4709 18.0171 12.7871H16.0171C16.0171 13.1126 15.929 13.2394 15.8919 13.2786C15.8621 13.3101 15.7715 13.3867 15.5063 13.3867V15.3867ZM18.0171 12.7871V5.30322H16.0171V12.7871H18.0171ZM18.0171 5.30322C18.0171 4.62118 17.8252 3.94947 17.3466 3.44156C16.8605 2.92564 16.1963 2.70361 15.5063 2.70361V4.70361C15.7685 4.70361 15.8597 4.77992 15.8909 4.81308C15.9297 4.85424 16.0171 4.98234 16.0171 5.30322H18.0171ZM15.5063 2.70361H12.5293V4.70361H15.5063V2.70361ZM11.5293 3.70361V12.7871H13.5293V3.70361H11.5293ZM11.5293 12.7871C11.5293 13.1987 11.4253 13.5465 11.2333 13.8425L12.9112 14.9309C13.3286 14.2875 13.5293 13.5562 13.5293 12.7871H11.5293ZM4.79492 6.7124V5.51904H2.79492V6.7124H4.79492ZM4.79492 5.51904C4.79492 5.65437 4.74863 5.84758 4.59005 6.01466C4.42695 6.1865 4.21849 6.25244 4.04883 6.25244V4.25244C3.72683 4.25244 3.39141 4.37234 3.13944 4.63781C2.89199 4.89851 2.79492 5.22502 2.79492 5.51904H4.79492ZM4.04883 6.25244H5.34375V4.25244H4.04883V6.25244ZM5.34375 6.25244C5.17683 6.25244 4.97675 6.18888 4.81788 6.02727C4.65974 5.8664 4.604 5.67147 4.604 5.51904H6.604C6.604 5.20792 6.49432 4.8797 6.24413 4.6252C5.99322 4.36996 5.66301 4.25244 5.34375 4.25244V6.25244ZM4.604 5.51904V6.7124H6.604V5.51904H4.604ZM4.604 6.7124C4.604 6.55997 4.65974 6.36505 4.81788 6.20417C4.97675 6.04256 5.17683 5.979 5.34375 5.979V7.979C5.66301 7.979 5.99322 7.86149 6.24413 7.60625C6.49432 7.35175 6.604 7.02353 6.604 6.7124H4.604ZM5.34375 5.979H4.04883V7.979H5.34375V5.979ZM4.04883 5.979C4.21849 5.979 4.42695 6.04495 4.59005 6.21679C4.74863 6.38386 4.79492 6.57707 4.79492 6.7124H2.79492C2.79492 7.00642 2.89199 7.33293 3.13944 7.59364C3.39141 7.8591 3.72683 7.979 4.04883 7.979V5.979ZM7.90527 6.7124V5.51904H5.90527V6.7124H7.90527ZM7.90527 5.51904C7.90527 5.65437 7.85898 5.84758 7.7004 6.01466C7.5373 6.1865 7.32884 6.25244 7.15918 6.25244V4.25244C6.83718 4.25244 6.50176 4.37234 6.24979 4.63781C6.00234 4.89851 5.90527 5.22502 5.90527 5.51904H7.90527ZM7.15918 6.25244H8.46045V4.25244H7.15918V6.25244ZM8.46045 6.25244C8.29079 6.25244 8.08233 6.1865 7.91922 6.01466C7.76064 5.84758 7.71436 5.65437 7.71436 5.51904H9.71436C9.71436 5.22502 9.61729 4.89851 9.36984 4.63781C9.11787 4.37234 8.78245 4.25244 8.46045 4.25244V6.25244ZM7.71436 5.51904V6.7124H9.71436V5.51904H7.71436ZM7.71436 6.7124C7.71436 6.57707 7.76064 6.38386 7.91922 6.21679C8.08233 6.04495 8.29079 5.979 8.46045 5.979V7.979C8.78245 7.979 9.11787 7.8591 9.36984 7.59364C9.61729 7.33293 9.71436 7.00642 9.71436 6.7124H7.71436ZM8.46045 5.979H7.15918V7.979H8.46045V5.979ZM7.15918 5.979C7.32884 5.979 7.5373 6.04495 7.7004 6.21679C7.85898 6.38386 7.90527 6.57707 7.90527 6.7124H5.90527C5.90527 7.00642 6.00234 7.33293 6.24979 7.59364C6.50176 7.8591 6.83718 7.979 7.15918 7.979V5.979ZM15.0527 7.07422V6.08398H13.0527V7.07422H15.0527ZM15.0527 6.08398C15.0527 6.20277 15.0172 6.41079 14.844 6.59932C14.6604 6.7992 14.4281 6.86182 14.2622 6.86182V4.86182C13.963 4.86182 13.6259 4.96886 13.371 5.24651C13.1264 5.5128 13.0527 5.8319 13.0527 6.08398H15.0527ZM14.2622 6.86182H15.2778V4.86182H14.2622V6.86182ZM15.2778 6.86182C15.0979 6.86182 14.8749 6.79251 14.7011 6.60735C14.5332 6.42847 14.4873 6.22348 14.4873 6.08398H16.4873C16.4873 5.81119 16.4002 5.49511 16.1592 5.23848C15.9124 4.97556 15.5847 4.86182 15.2778 4.86182V6.86182ZM14.4873 6.08398V7.07422H16.4873V6.08398H14.4873ZM14.4873 7.07422C14.4873 6.93279 14.5349 6.71722 14.7155 6.53265C14.898 6.34623 15.1199 6.29004 15.2778 6.29004V8.29004C15.5627 8.29004 15.8894 8.19259 16.1448 7.93158C16.3985 7.67242 16.4873 7.34895 16.4873 7.07422H14.4873ZM15.2778 6.29004H14.2622V8.29004H15.2778V6.29004ZM14.2622 6.29004C14.406 6.29004 14.6377 6.33994 14.8298 6.54055C15.016 6.73498 15.0527 6.95409 15.0527 7.07422H13.0527C13.0527 7.32765 13.1276 7.65467 13.3852 7.92369C13.6487 8.19888 13.9851 8.29004 14.2622 8.29004V6.29004ZM4.79492 9.30859V8.11523H2.79492V9.30859H4.79492ZM4.79492 8.11523C4.79492 8.25243 4.74704 8.45445 4.57808 8.62642C4.40787 8.79967 4.2004 8.85498 4.04883 8.85498V6.85498C3.74491 6.85498 3.41049 6.96107 3.15141 7.22478C2.89359 7.4872 2.79492 7.81935 2.79492 8.11523H4.79492ZM4.04883 8.85498H5.34375V6.85498H4.04883V8.85498ZM5.34375 8.85498C5.19447 8.85498 4.99574 8.80163 4.83007 8.63883C4.66172 8.47337 4.604 8.26995 4.604 8.11523H6.604C6.604 7.80182 6.49234 7.46828 6.23194 7.21237C5.97423 6.95911 5.64537 6.85498 5.34375 6.85498V8.85498ZM4.604 8.11523V9.30859H6.604V8.11523H4.604ZM4.604 9.30859C4.604 9.15616 4.65974 8.96124 4.81788 8.80037C4.97675 8.63876 5.17683 8.5752 5.34375 8.5752V10.5752C5.66301 10.5752 5.99322 10.4577 6.24413 10.2024C6.49432 9.94794 6.604 9.61972 6.604 9.30859H4.604ZM5.34375 8.5752H4.04883V10.5752H5.34375V8.5752ZM4.04883 8.5752C4.21849 8.5752 4.42695 8.64114 4.59005 8.81298C4.74863 8.98005 4.79492 9.17326 4.79492 9.30859H2.79492C2.79492 9.60261 2.89199 9.92913 3.13944 10.1898C3.39141 10.4553 3.72683 10.5752 4.04883 10.5752V8.5752ZM7.90527 9.30859V8.11523H5.90527V9.30859H7.90527ZM7.90527 8.11523C7.90527 8.25243 7.85739 8.45445 7.68843 8.62642C7.51822 8.79967 7.31075 8.85498 7.15918 8.85498V6.85498C6.85526 6.85498 6.52084 6.96107 6.26176 7.22478C6.00394 7.4872 5.90527 7.81935 5.90527 8.11523H7.90527ZM7.15918 8.85498H8.46045V6.85498H7.15918V8.85498ZM8.46045 8.85498C8.30887 8.85498 8.10141 8.79967 7.93119 8.62642C7.76224 8.45445 7.71436 8.25243 7.71436 8.11523H9.71436C9.71436 7.81935 9.61569 7.4872 9.35787 7.22478C9.09879 6.96107 8.76437 6.85498 8.46045 6.85498V8.85498ZM7.71436 8.11523V9.30859H9.71436V8.11523H7.71436ZM7.71436 9.30859C7.71436 9.17326 7.76064 8.98005 7.91922 8.81298C8.08233 8.64114 8.29079 8.5752 8.46045 8.5752V10.5752C8.78245 10.5752 9.11787 10.4553 9.36984 10.1898C9.61729 9.92913 9.71436 9.60261 9.71436 9.30859H7.71436ZM8.46045 8.5752H7.15918V10.5752H8.46045V8.5752ZM7.15918 8.5752C7.32884 8.5752 7.5373 8.64114 7.7004 8.81298C7.85898 8.98005 7.90527 9.17326 7.90527 9.30859H5.90527C5.90527 9.60261 6.00234 9.92913 6.24979 10.1898C6.50176 10.4553 6.83718 10.5752 7.15918 10.5752V8.5752ZM15.0527 9.54346V8.55322H13.0527V9.54346H15.0527ZM15.0527 8.55322C15.0527 8.67201 15.0172 8.88002 14.844 9.06856C14.6604 9.26844 14.4281 9.33105 14.2622 9.33105V7.33105C13.963 7.33105 13.6259 7.4381 13.371 7.71575C13.1264 7.98204 13.0527 8.30114 13.0527 8.55322H15.0527ZM14.2622 9.33105H15.2778V7.33105H14.2622V9.33105ZM15.2778 9.33105C15.0979 9.33105 14.8749 9.26174 14.7011 9.07659C14.5332 8.89771 14.4873 8.69272 14.4873 8.55322H16.4873C16.4873 8.28043 16.4002 7.96435 16.1592 7.70771C15.9124 7.4448 15.5847 7.33105 15.2778 7.33105V9.33105ZM14.4873 8.55322V9.54346H16.4873V8.55322H14.4873ZM14.4873 9.54346C14.4873 9.40202 14.5349 9.18646 14.7155 9.00189C14.898 8.81547 15.1199 8.75928 15.2778 8.75928V10.7593C15.5627 10.7593 15.8894 10.6618 16.1448 10.4008C16.3985 10.1417 16.4873 9.81819 16.4873 9.54346H14.4873ZM15.2778 8.75928H14.2622V10.7593H15.2778V8.75928ZM14.2622 8.75928C14.406 8.75928 14.6377 8.80918 14.8298 9.00978C15.016 9.20422 15.0527 9.42332 15.0527 9.54346H13.0527C13.0527 9.79689 13.1276 10.1239 13.3852 10.3929C13.6487 10.6681 13.9851 10.7593 14.2622 10.7593V8.75928ZM4.90283 13.0791V11.1938H2.90283V13.0791H4.90283ZM4.90283 11.1938C4.90283 11.2699 4.87251 11.4153 4.74319 11.5423C4.61592 11.6673 4.47649 11.6924 4.41064 11.6924V9.69238C4.04011 9.69238 3.64678 9.81585 3.34177 10.1154C3.03472 10.417 2.90283 10.8131 2.90283 11.1938H4.90283ZM4.41064 11.6924H8.02881V9.69238H4.41064V11.6924ZM8.02881 11.6924C8.05612 11.6924 7.93191 11.6988 7.79081 11.5715C7.6362 11.4321 7.60645 11.2642 7.60645 11.1938H9.60645C9.60645 10.8188 9.4783 10.4001 9.13009 10.0862C8.79538 9.78439 8.38235 9.69238 8.02881 9.69238V11.6924ZM7.60645 11.1938V13.0791H9.60645V11.1938H7.60645ZM8.60645 12.0791H3.90283V14.0791H8.60645V12.0791ZM15.0527 12.0127V11.0225H13.0527V12.0127H15.0527ZM15.0527 11.0225C15.0527 11.1412 15.0172 11.3493 14.844 11.5378C14.6604 11.7377 14.4281 11.8003 14.2622 11.8003V9.80029C13.963 9.80029 13.6259 9.90734 13.371 10.185C13.1264 10.4513 13.0527 10.7704 13.0527 11.0225H15.0527ZM14.2622 11.8003H15.2778V9.80029H14.2622V11.8003ZM15.2778 11.8003C15.0979 11.8003 14.8749 11.731 14.7011 11.5458C14.5332 11.367 14.4873 11.162 14.4873 11.0225H16.4873C16.4873 10.7497 16.4002 10.4336 16.1592 10.177C15.9124 9.91404 15.5847 9.80029 15.2778 9.80029V11.8003ZM14.4873 11.0225V12.0127H16.4873V11.0225H14.4873ZM14.4873 12.0127C14.4873 11.8713 14.5349 11.6557 14.7155 11.4711C14.898 11.2847 15.1199 11.2285 15.2778 11.2285V13.2285C15.5627 13.2285 15.8894 13.1311 16.1448 12.8701C16.3985 12.6109 16.4873 12.2874 16.4873 12.0127H14.4873ZM15.2778 11.2285H14.2622V13.2285H15.2778V11.2285ZM14.2622 11.2285C14.406 11.2285 14.6377 11.2784 14.8298 11.479C15.016 11.6735 15.0527 11.8926 15.0527 12.0127H13.0527C13.0527 12.2661 13.1276 12.5931 13.3852 12.8622C13.6487 13.1374 13.9851 13.2285 14.2622 13.2285V11.2285Z" fill="black"/>
</svg>
