<svg width="24" height="24" viewBox="0 0 24 24" fill="none" xmlns="http://www.w3.org/2000/svg">
<path d="M9.13574 15.1611C11.1113 17.1367 13.5107 18.6611 15.4727 18.6611C16.3545 18.6611 17.127 18.3535 17.749 17.6699C18.1113 17.2666 18.3369 16.7949 18.3369 16.3301C18.3369 15.9883 18.207 15.6602 17.8857 15.4277L15.7871 13.9375C15.4658 13.7188 15.1992 13.6094 14.9531 13.6094C14.6455 13.6094 14.3652 13.7871 14.0508 14.0947L13.5654 14.5732C13.4902 14.6484 13.3945 14.6826 13.3057 14.6826C13.2031 14.6826 13.1006 14.6416 13.0322 14.6074C12.6084 14.3818 11.8838 13.7598 11.207 13.0898C10.5371 12.4199 9.91504 11.6953 9.69629 11.2715C9.66211 11.1963 9.62109 11.1006 9.62109 10.998C9.62109 10.9092 9.64844 10.8203 9.72363 10.7451L10.209 10.2461C10.5098 9.93164 10.6943 9.6582 10.6943 9.34375C10.6943 9.09766 10.5781 8.83105 10.3525 8.50977L8.88281 6.43848C8.64355 6.11035 8.30859 5.9668 7.93945 5.9668C7.48828 5.9668 7.02344 6.17188 6.62012 6.56152C5.95703 7.19727 5.66309 7.9834 5.66309 8.85156C5.66309 10.8135 7.16016 13.1924 9.13574 15.1611Z" fill="#212529"/>
</svg>
