<svg width="18" height="18" viewBox="0 0 18 18" fill="none" xmlns="http://www.w3.org/2000/svg">
<path d="M9 17.4736C13.6318 17.4736 17.4668 13.6304 17.4668 9.00684C17.4668 4.375 13.6235 0.540039 8.9917 0.540039C4.36816 0.540039 0.533203 4.375 0.533203 9.00684C0.533203 13.6304 4.37646 17.4736 9 17.4736ZM9 11.8291C6.50146 11.8291 4.58398 12.7256 3.7373 13.7217C2.625 12.4683 1.95264 10.8247 1.95264 9.00684C1.95264 5.08887 5.07373 1.95117 8.9917 1.95117C12.9097 1.95117 16.0474 5.08887 16.0557 9.00684C16.064 10.8247 15.3833 12.4766 14.2627 13.7217C13.4243 12.7256 11.4985 11.8291 9 11.8291ZM9 10.418C10.6021 10.4346 11.8472 9.07324 11.8472 7.28857C11.8472 5.61182 10.5938 4.22559 9 4.22559C7.40625 4.22559 6.14453 5.61182 6.15283 7.28857C6.16113 9.07324 7.40625 10.4014 9 10.418Z" fill="white"/>
</svg>
