<svg width="12" height="13" viewBox="0 0 12 13" fill="none" xmlns="http://www.w3.org/2000/svg">
<path d="M6.00003 1.58108C7.60209 1.58108 7.79187 1.5872 8.42454 1.61607C9.00954 1.64274 9.32724 1.74049 9.53866 1.82266C9.81873 1.9315 10.0186 2.06152 10.2285 2.27146C10.4385 2.48143 10.5685 2.68131 10.6774 2.96137C10.7595 3.1728 10.8573 3.49049 10.884 4.07549C10.9128 4.70816 10.919 4.89794 10.919 6.49999C10.919 8.10207 10.9128 8.29184 10.884 8.92452C10.8573 9.50951 10.7595 9.8272 10.6774 10.0386C10.5685 10.3187 10.4385 10.5186 10.2286 10.7285C10.0186 10.9385 9.81873 11.0685 9.53866 11.1773C9.32724 11.2595 9.00954 11.3573 8.42454 11.3839C7.79196 11.4128 7.60221 11.4189 6.00003 11.4189C4.39783 11.4189 4.2081 11.4128 3.5755 11.3839C2.9905 11.3573 2.6728 11.2595 2.46138 11.1773C2.18131 11.0685 1.98144 10.9385 1.77149 10.7285C1.56155 10.5186 1.4315 10.3187 1.32266 10.0386C1.24049 9.8272 1.14275 9.50951 1.11607 8.92452C1.0872 8.29184 1.08108 8.10207 1.08108 6.49999C1.08108 4.89794 1.0872 4.70816 1.11607 4.07549C1.14275 3.49049 1.24049 3.1728 1.32266 2.96137C1.4315 2.68131 1.56152 2.48143 1.77149 2.27149C1.98144 2.06152 2.18131 1.9315 2.46138 1.82266C2.6728 1.74049 2.9905 1.64274 3.5755 1.61607C4.20818 1.5872 4.39795 1.58108 6.00003 1.58108ZM6.00003 0.5C4.37051 0.5 4.16619 0.506907 3.52622 0.536107C2.88759 0.565235 2.45142 0.666672 2.06978 0.81498C1.67522 0.968314 1.34062 1.17347 1.00704 1.50703C0.673477 1.84061 0.468316 2.17522 0.315005 2.56977C0.166672 2.95142 0.0652351 3.38758 0.0361068 4.02621C0.00690697 4.66617 0 4.8705 0 6.49999C0 8.1295 0.00690697 8.33383 0.0361068 8.97379C0.0652351 9.61242 0.166672 10.0486 0.315005 10.4302C0.468316 10.8248 0.673477 11.1594 1.00704 11.493C1.34062 11.8265 1.67522 12.0317 2.06978 12.185C2.45142 12.3333 2.88759 12.4348 3.52622 12.4639C4.16619 12.4931 4.37051 12.5 6.00003 12.5C7.62953 12.5 7.83385 12.4931 8.47382 12.4639C9.11245 12.4348 9.54862 12.3333 9.93026 12.185C10.3248 12.0317 10.6594 11.8265 10.993 11.493C11.3266 11.1594 11.5317 10.8248 11.6851 10.4302C11.8334 10.0486 11.9348 9.61242 11.9639 8.97379C11.9931 8.33383 12 8.1295 12 6.49999C12 4.8705 11.9931 4.66617 11.9639 4.02621C11.9348 3.38758 11.8334 2.95142 11.6851 2.56977C11.5317 2.17522 11.3266 1.84061 10.993 1.50703C10.6594 1.17347 10.3248 0.968314 9.93026 0.81498C9.54862 0.666672 9.11245 0.565235 8.47382 0.536107C7.83385 0.506907 7.62953 0.5 6.00003 0.5Z" fill="white"/>
<path d="M6.00298 3.42188C4.30131 3.42188 2.92188 4.80131 2.92188 6.50294C2.92188 8.2046 4.30131 9.58403 6.00298 9.58403C7.70461 9.58403 9.08405 8.2046 9.08405 6.50294C9.08405 4.80131 7.70461 3.42188 6.00298 3.42188ZM6.00298 8.50295C4.89839 8.50295 4.00296 7.60753 4.00296 6.50294C4.00296 5.39838 4.89839 4.50295 6.00298 4.50295C7.10754 4.50295 8.00297 5.39838 8.00297 6.50294C8.00297 7.60753 7.10754 8.50295 6.00298 8.50295Z" fill="white"/>
<path d="M9.92438 3.29814C9.92438 3.69577 9.60202 4.01813 9.20437 4.01813C8.80674 4.01813 8.48438 3.69577 8.48438 3.29814C8.48438 2.90049 8.80674 2.57812 9.20437 2.57812C9.60202 2.57812 9.92438 2.90049 9.92438 3.29814Z" fill="white"/>
</svg>
