<svg width="241" height="40" viewBox="0 0 241 40" fill="none" xmlns="http://www.w3.org/2000/svg">
<path d="M10.6416 31.9248H18.8717L29.5133 0H21.9911L14.9558 24.4911H14.5575L7.5 0H0L10.6416 31.9248Z" fill="#232323"/>
<path d="M32.7876 31.9248H39.2478V17.8319C39.2478 14.5354 41.0619 12.3894 44.0487 12.3894C47.1018 12.3894 48.5177 14.2035 48.5177 17.6327V31.9248H54.9779V16.1726C54.9779 10.354 52.0575 7.0354 46.6372 7.0354C43.1637 7.0354 40.7522 8.69469 39.646 11.3274H39.2478V7.56637H32.7876V31.9248Z" fill="#232323"/>
<path d="M71.969 32.4336C78.3186 32.4336 82.1239 29.0265 82.7876 23.7168L82.8097 23.5841H76.8363L76.792 23.6726C76.2168 26.1062 74.646 27.3673 71.9911 27.3673C68.5398 27.3673 66.615 24.646 66.615 19.7124V19.6681C66.615 14.8009 68.5177 12.1018 71.9911 12.1018C74.7566 12.1018 76.3717 13.6504 76.792 16.0177L76.8142 16.0619H82.8319V15.9956C82.2566 10.5531 78.4292 7.0354 71.969 7.0354C64.3363 7.0354 60.0442 11.6593 60.0442 19.6681V19.7124C60.0442 27.8097 64.3584 32.4336 71.969 32.4336Z" fill="#232323"/>
<path d="M98.6947 32.4336C106.195 32.4336 110.708 27.6991 110.708 19.7566V19.7124C110.708 11.8363 106.128 7.0354 98.6947 7.0354C91.2611 7.0354 86.6814 11.8584 86.6814 19.7124V19.7566C86.6814 27.677 91.1947 32.4336 98.6947 32.4336ZM98.6947 27.3673C95.2434 27.3673 93.2965 24.5575 93.2965 19.7566V19.7124C93.2965 14.9558 95.2655 12.1018 98.6947 12.1018C102.102 12.1018 104.093 14.9558 104.093 19.7124V19.7566C104.093 24.5575 102.124 27.3673 98.6947 27.3673Z" fill="#232323"/>
<path d="M115.973 31.9248H122.434V17.8319C122.434 14.5354 124.248 12.3894 127.235 12.3894C130.288 12.3894 131.704 14.2035 131.704 17.6327V31.9248H138.164V16.1726C138.164 10.354 135.243 7.0354 129.823 7.0354C126.35 7.0354 123.938 8.69469 122.832 11.3274H122.434V7.56637H115.973V31.9248Z" fill="#232323"/>
<path d="M155.155 32.4336C161.504 32.4336 165.31 29.0265 165.973 23.7168L165.996 23.5841H160.022L159.978 23.6726C159.403 26.1062 157.832 27.3673 155.177 27.3673C151.726 27.3673 149.801 24.646 149.801 19.7124V19.6681C149.801 14.8009 151.704 12.1018 155.177 12.1018C157.942 12.1018 159.558 13.6504 159.978 16.0177L160 16.0619H166.018V15.9956C165.442 10.5531 161.615 7.0354 155.155 7.0354C147.522 7.0354 143.23 11.6593 143.23 19.6681V19.7124C143.23 27.8097 147.544 32.4336 155.155 32.4336Z" fill="#232323"/>
<path d="M181.77 32.4336C188.894 32.4336 192.035 28.3186 192.788 25.2655L192.832 25.0442H186.814L186.748 25.177C186.305 26.1062 184.735 27.6106 181.903 27.6106C178.473 27.6106 176.327 25.2876 176.261 21.2832H193.031V19.2699C193.031 11.9027 188.606 7.0354 181.504 7.0354C174.403 7.0354 169.867 12.0133 169.867 19.7566V19.7788C169.867 27.5885 174.358 32.4336 181.77 32.4336ZM181.615 11.8805C184.425 11.8805 186.438 13.6947 186.836 17.2345H176.327C176.726 13.7832 178.805 11.8805 181.615 11.8805Z" fill="#232323"/>
<path d="M198.319 40H204.779V28.031H205.177C206.416 30.6858 209.137 32.3009 212.478 32.3009C218.65 32.3009 222.367 27.5885 222.367 19.7566V19.7124C222.367 11.9469 218.562 7.16814 212.478 7.16814C209.027 7.16814 206.438 8.71681 205.177 11.3274H204.779V7.56637H198.319V40ZM210.265 26.9469C206.881 26.9469 204.712 24.2257 204.712 19.7566V19.7124C204.712 15.2434 206.858 12.5221 210.265 12.5221C213.695 12.5221 215.796 15.2434 215.796 19.7124V19.7566C215.796 24.2257 213.673 26.9469 210.265 26.9469Z" fill="#232323"/>
<path d="M237.765 32.0133C239.004 32.0133 240.199 31.8805 240.996 31.7257V26.9248C240.376 26.9911 239.934 27.0354 239.093 27.0354C236.903 27.0354 235.973 26.0619 235.973 23.8717V12.4336H240.996V7.56637H235.973V1.74779H229.447V7.56637H225.686V12.4336H229.447V25.354C229.447 30.0885 231.836 32.0133 237.765 32.0133Z" fill="#232323"/>
</svg>
