<svg width="16" height="12" viewBox="0 0 16 12" fill="none" xmlns="http://www.w3.org/2000/svg">
<path d="M8.01367 6.86426C8.29395 6.86426 8.55371 6.73438 8.85449 6.43359L14.8018 0.547852C14.5488 0.301758 14.0771 0.185547 13.4004 0.185547H2.39453C1.82031 0.185547 1.41699 0.294922 1.19141 0.520508L7.17285 6.43359C7.4668 6.72754 7.72656 6.86426 8.01367 6.86426ZM0.624023 10.8633L5.45703 6.08496L0.610352 1.30664C0.507812 1.49805 0.453125 1.82617 0.453125 2.29785V9.84473C0.453125 10.3301 0.507812 10.6719 0.624023 10.8633ZM15.3828 10.8564C15.4922 10.6582 15.5469 10.3232 15.5469 9.84473V2.29785C15.5469 1.83984 15.4922 1.51172 15.3965 1.32715L10.5635 6.08496L15.3828 10.8564ZM2.59961 11.9639H13.6055C14.1797 11.9639 14.5762 11.8545 14.8018 11.6357L9.87305 6.75488L9.42188 7.21289C8.9502 7.66406 8.50586 7.86914 8.01367 7.86914C7.51465 7.86914 7.07031 7.66406 6.60547 7.21289L6.14746 6.75488L1.23242 11.6289C1.49219 11.8545 1.94336 11.9639 2.59961 11.9639Z" fill="#212529"/>
</svg>
