<svg width="18" height="16" viewBox="0 0 18 16" fill="none" xmlns="http://www.w3.org/2000/svg">
<path d="M0.757324 5.65771C0.757324 9.19385 3.7207 12.6719 8.40234 15.6602C8.57666 15.7681 8.82568 15.8843 9 15.8843C9.17432 15.8843 9.42334 15.7681 9.60596 15.6602C14.2793 12.6719 17.2427 9.19385 17.2427 5.65771C17.2427 2.71924 15.2256 0.644043 12.5361 0.644043C11.0005 0.644043 9.75537 1.37451 9 2.49512C8.26123 1.38281 6.99951 0.644043 5.46387 0.644043C2.77441 0.644043 0.757324 2.71924 0.757324 5.65771ZM2.09375 5.65771C2.09375 3.44971 3.52148 1.98047 5.44727 1.98047C7.00781 1.98047 7.9043 2.95166 8.43555 3.78174C8.65967 4.11377 8.80078 4.20508 9 4.20508C9.19922 4.20508 9.32373 4.10547 9.56445 3.78174C10.1372 2.96826 11.0005 1.98047 12.5527 1.98047C14.4785 1.98047 15.9062 3.44971 15.9062 5.65771C15.9062 8.74561 12.644 12.0742 9.17432 14.3818C9.09131 14.4399 9.0332 14.4814 9 14.4814C8.9668 14.4814 8.90869 14.4399 8.83398 14.3818C5.35596 12.0742 2.09375 8.74561 2.09375 5.65771Z" fill="white"/>
</svg>
