<svg width="23" height="22" viewBox="0 0 23 22" fill="none" xmlns="http://www.w3.org/2000/svg">
<path d="M9.13281 21.0625C9.82422 21.0625 10.3633 20.793 10.7383 20.2305L21.707 3.26172C21.9883 2.83984 22.0938 2.46484 22.0938 2.10156C22.0938 1.17578 21.4141 0.507812 20.4648 0.507812C19.8086 0.507812 19.4102 0.742188 19.0117 1.375L9.08594 17.1016L4 10.6562C3.61328 10.1758 3.21484 9.96484 2.64062 9.96484C1.67969 9.96484 0.988281 10.6445 0.988281 11.582C0.988281 11.9922 1.12891 12.3789 1.46875 12.7891L7.53906 20.2656C7.98438 20.8164 8.47656 21.0625 9.13281 21.0625Z" fill="white"/>
</svg>
