<svg width="20" height="17" viewBox="0 0 20 17" fill="none" xmlns="http://www.w3.org/2000/svg">
<path d="M6.95361 12.7217H16.6406C16.9644 12.7217 17.2466 12.4561 17.2466 12.0991C17.2466 11.7422 16.9644 11.4766 16.6406 11.4766H7.09473C6.62158 11.4766 6.33105 11.1445 6.25635 10.6382L6.12354 9.7666H16.6572C17.8691 9.7666 18.4917 9.01953 18.666 7.83252L19.3301 3.44141C19.3467 3.3335 19.3633 3.20068 19.3633 3.12598C19.3633 2.72754 19.0645 2.45361 18.6079 2.45361H5.05273L4.89502 1.39941C4.81201 0.760254 4.57959 0.436523 3.73291 0.436523H0.819336C0.487305 0.436523 0.205078 0.727051 0.205078 1.05908C0.205078 1.39941 0.487305 1.68994 0.819336 1.68994H3.625L4.95312 10.8042C5.12744 11.9829 5.75 12.7217 6.95361 12.7217ZM17.9521 3.70703L17.3628 7.68311C17.2964 8.19775 17.0225 8.51318 16.5327 8.51318L5.94092 8.52148L5.23535 3.70703H17.9521ZM7.60938 16.7559C8.35645 16.7559 8.9541 16.1665 8.9541 15.4111C8.9541 14.6641 8.35645 14.0664 7.60938 14.0664C6.854 14.0664 6.25635 14.6641 6.25635 15.4111C6.25635 16.1665 6.854 16.7559 7.60938 16.7559ZM15.3706 16.7559C16.126 16.7559 16.7236 16.1665 16.7236 15.4111C16.7236 14.6641 16.126 14.0664 15.3706 14.0664C14.6235 14.0664 14.0176 14.6641 14.0176 15.4111C14.0176 16.1665 14.6235 16.7559 15.3706 16.7559Z" fill="white"/>
</svg>
