<svg width="12" height="9" viewBox="0 0 12 9" fill="none" xmlns="http://www.w3.org/2000/svg">
<path fill-rule="evenodd" clip-rule="evenodd" d="M10.8002 1.11248C10.9776 1.28985 11.1054 1.5106 11.1709 1.75275C11.5482 3.27143 11.461 5.66996 11.1783 7.24725C11.1127 7.48939 10.9849 7.71015 10.8075 7.88752C10.6302 8.0649 10.4094 8.19272 10.1673 8.25824C9.28082 8.5 5.71306 8.5 5.71306 8.5C5.71306 8.5 2.14529 8.5 1.25885 8.25824C1.0167 8.19272 0.795952 8.0649 0.618573 7.88752C0.441196 7.71015 0.313381 7.48939 0.247857 7.24725C-0.13163 5.73517 -0.0276 3.33517 0.240532 1.76007C0.306054 1.51793 0.433869 1.29718 0.611248 1.1198C0.788625 0.942422 1.00938 0.814606 1.25152 0.749086C2.13797 0.507324 5.70573 0.5 5.70573 0.5C5.70573 0.5 9.2735 0.5 10.1599 0.741757C10.4021 0.807282 10.6228 0.935098 10.8002 1.11248ZM7.52991 4.5L4.5702 6.21428V2.78571L7.52991 4.5Z" fill="white"/>
</svg>
