<svg width="18" height="16" viewBox="0 0 18 16" fill="none" xmlns="http://www.w3.org/2000/svg">
<path d="M0.837891 7.68164C0.837891 7.96191 1.05664 8.22852 1.42578 8.22852C1.61719 8.22852 1.77441 8.12598 1.91797 8.00977L8.76074 2.26758C8.91113 2.13086 9.0957 2.13086 9.24609 2.26758L16.0889 8.00977C16.2256 8.12598 16.3828 8.22852 16.5742 8.22852C16.8955 8.22852 17.1553 8.03027 17.1553 7.70215C17.1553 7.49707 17.0869 7.36035 16.9434 7.2373L15.0293 5.62402V2.88965C15.0293 2.58887 14.8379 2.39746 14.5371 2.39746H13.8057C13.5117 2.39746 13.3135 2.58887 13.3135 2.88965V4.18164L9.82715 1.25586C9.32129 0.825195 8.69238 0.825195 8.17969 1.25586L1.05664 7.2373C0.90625 7.36035 0.837891 7.52441 0.837891 7.68164ZM2.9707 13.7861C2.9707 14.7295 3.54492 15.29 4.50879 15.29H13.498C14.4619 15.29 15.0293 14.7295 15.0293 13.7861V8.36523L9.41016 3.65527C9.15039 3.43652 8.84277 3.44336 8.58984 3.65527L2.9707 8.36523V13.7861ZM10.7568 14.1895H7.22949V9.6709C7.22949 9.35645 7.44141 9.15137 7.75586 9.15137H10.2373C10.5518 9.15137 10.7568 9.35645 10.7568 9.6709V14.1895Z" fill="#212529"/>
</svg>
